/* XPM */
static char *_bd6b4b1170e452dac553626d5b021837ZUAbMarFw9xaEJx[] = {
/* columns rows colors chars-per-pixel */
"64 64 250 2 ",
"   c #010000",
".  c #0D0302",
"X  c #08000A",
"o  c #120403",
"O  c #190806",
"+  c #1A1A18",
"@  c #1B141B",
"#  c #130A19",
"$  c #261617",
"%  c #2C1112",
"&  c #081221",
"*  c #1A1825",
"=  c #251D29",
"-  c #3A1D21",
";  c #162834",
":  c #242423",
">  c #29222B",
",  c #392828",
"<  c #2B2532",
"1  c #2B2734",
"2  c #362C36",
"3  c #29333A",
"4  c #353734",
"5  c #3B333C",
"6  c #35333C",
"7  c #580404",
"8  c #501412",
"9  c #670404",
"0  c #7B0405",
"q  c #780707",
"w  c #6C1314",
"e  c #7C2219",
"r  c #442B2B",
"t  c #492D33",
"y  c #41343D",
"u  c #49383D",
"i  c #44373A",
"p  c #58302F",
"a  c #7B3737",
"s  c #732629",
"d  c #67433A",
"f  c #3C3541",
"g  c #3A3A46",
"h  c #2B3647",
"j  c #443A44",
"k  c #493D46",
"l  c #4B3E49",
"z  c #433946",
"x  c #523D4B",
"c  c #7A3F40",
"v  c #39414B",
"b  c #3C4454",
"n  c #274456",
"m  c #0C5A78",
"M  c #145975",
"N  c #145D7C",
"B  c #195C77",
"V  c #15526E",
"C  c #38566C",
"Z  c #2E516C",
"A  c #16607E",
"S  c #0D617E",
"D  c #2D627C",
"F  c #4C414A",
"G  c #484449",
"H  c #56474B",
"J  c #484956",
"K  c #544C57",
"L  c #495254",
"P  c #4C545B",
"I  c #58545B",
"U  c #625249",
"Y  c #665859",
"T  c #6F4F50",
"R  c #7B645A",
"E  c #454D63",
"W  c #4A546A",
"Q  c #565A65",
"!  c #695C64",
"~  c #725C66",
"^  c #5B6567",
"/  c #59626C",
"(  c #4E606E",
")  c #797878",
"_  c #6C6C70",
"`  c #48604F",
"'  c #8D0201",
"]  c #89090A",
"[  c #920303",
"{  c #930D0B",
"}  c #99070C",
"|  c #93110D",
" . c #99110F",
".. c #8B1919",
"X. c #8A1717",
"o. c #951413",
"O. c #961A16",
"+. c #991B16",
"@. c #961B1A",
"#. c #9A1B1A",
"$. c #9B1315",
"%. c #850E16",
"&. c #A7020D",
"*. c #A50B18",
"=. c #A9171A",
"-. c #B4171B",
";. c #B90815",
":. c #95211E",
">. c #99261B",
",. c #8E231C",
"<. c #B72318",
"1. c #B3301D",
"2. c #941C21",
"3. c #952221",
"4. c #9A2A28",
"5. c #9B3937",
"6. c #8D2E2B",
"7. c #B92D25",
"8. c #AD3533",
"9. c #CC0F15",
"0. c #D32B1D",
"q. c #D9261D",
"w. c #C92A1D",
"e. c #E6361B",
"r. c #C82722",
"t. c #D32C22",
"y. c #D5362D",
"u. c #F13229",
"i. c #E20F0B",
"p. c #92413F",
"a. c #A64B35",
"s. c #A45523",
"d. c #F0521D",
"f. c #E75522",
"g. c #F47525",
"h. c #9E3B41",
"j. c #954143",
"k. c #8B5C55",
"l. c #A44846",
"z. c #A3524E",
"x. c #A85754",
"c. c #B65056",
"v. c #84655D",
"b. c #8C746F",
"n. c #AE6966",
"m. c #AA746D",
"M. c #B47975",
"N. c #B1726F",
"B. c #A56160",
"V. c #DA5858",
"C. c #7B8178",
"Z. c #B48479",
"A. c #96867F",
"S. c #C78C77",
"D. c #0F5E81",
"F. c #0D6184",
"G. c #166485",
"H. c #186588",
"J. c #1C759C",
"K. c #1A7196",
"L. c #116D98",
"P. c #2C6E8E",
"I. c #1C7BA6",
"U. c #0975AB",
"Y. c #2878AD",
"T. c #2755B3",
"R. c #496D94",
"E. c #727C88",
"W. c #336FDA",
"Q. c #327DEB",
"!. c #847D83",
"~. c #1F81AD",
"^. c #1D87B7",
"/. c #2382AC",
"(. c #2186B4",
"). c #2289B6",
"_. c #238BB9",
"`. c #2692BD",
"'. c #348BB4",
"]. c #6D8084",
"[. c #7A8790",
"{. c #6A8FA9",
"}. c #5392B0",
"|. c #1E98CA",
" X c #2896C3",
".X c #2BA6CA",
"XX c #2FADD4",
"oX c #4BADCF",
"OX c #4D8CF1",
"+X c #55B0FD",
"@X c #73EEFF",
"#X c #69D1D2",
"$X c #868586",
"%X c #959696",
"&X c #8E9193",
"*X c #B78784",
"=X c #BC948A",
"-X c #BB9895",
";X c #A99792",
":X c #A6A39C",
">X c #B8A89D",
",X c #809EA5",
"<X c #989FA1",
"1X c #96ACA5",
"2X c #A9A9A8",
"3X c #BBAAA6",
"4X c #B7B3AC",
"5X c #BABBB7",
"6X c #AFB8B6",
"7X c #CF9A8C",
"8X c #EFAD98",
"9X c #C1ABA8",
"0X c #C5BCB7",
"qX c #C3B0AB",
"wX c #F2B7A8",
"eX c #DAA68B",
"rX c #C5C1BE",
"tX c #CBC6BB",
"yX c #FFCCB1",
"uX c #FFC19F",
"iX c #BACBCC",
"pX c #93F5EC",
"aX c #A3E8EE",
"sX c #C6C4C1",
"dX c #CAC5C2",
"fX c #CBC9C5",
"gX c #CCCDCA",
"hX c #C6CCCA",
"jX c #D3CBC6",
"kX c #CCD2CD",
"lX c #D5D2CC",
"zX c #CED4D2",
"xX c #CCDBD8",
"cX c #D7D9D7",
"vX c #C6CFD0",
"bX c #E5DCD3",
"nX c #D7E1DD",
"mX c #CFE0DE",
"MX c #D6E7E5",
"NX c #D4F5ED",
"BX c #E9E9E4",
"VX c #F3ECE6",
"CX c #EDF2EC",
"ZX c #F9F4E9",
"AX c #FDFCF5",
"SX c #FEFEFD",
"DX c #F5FAF6",
"FX c #E5F8F6",
"GX c #E7E3D9",
"HX c #9ABECC",
/* pixels */
"                                                              8 ............X...............%.0 5.5.p.j.p.j.j...] X...........O.",
"^ ^ ^ ^ ^ ^ ^ ^ ^ ^ ^ ^ ^ L ^ L ^ ^ ^ ^ ^ ^ ^ ^ ^ ^ L ^ L ^ L 6.#.#.#.#.#.#.#.#.#.#.#.#.#. . .N.kXcXcXcXcXcXcX7X+.{  .#.#.#.#.#.",
"L L L L L L L L L L L L L L L L L L L L L L L L L L L L L L L a @.@.@.O.O.O.O.O.@.@.O.@.o.| 0XFXMXxXmXMXzXfXsXzX3XN.@.] @.O.@.@.",
"L L L L L L L L L L L L L L L L L L L L L L L L L L L L L L L a @.@.@.O.O.O.O.#.@.@.@.o.O.qXqX-X-X=X-X=X0XMXgXdXcXzX0Xz.[ #.@.#.",
"L L L L L L L L L L L L L L L L L L L L L L L L L L L L L L L a O.O.O.O.O.+.O.#.O.#.| | qXFX' [ [ ' [ [ 5.M.dXgXrXdXzXkXl. .O.#.",
"L L L L L L L L L L L L L L L L L L L L L L L L L L L L L L L a O.O.O.O.O.O.o.O.O.O.5.0X-X5.O.+.+.O.O.O.{ ' z.gXgXsXdXdXkX3.@.O.",
"L L L L L L L L u L L L L L L L L L L L L L L L L L L L L L L a #.#.+.#.+. .' { #.#.x.-X[ [ #.#.+.+.#.+.+.#.[ x.dXfXfXdXkX*X| #.",
"L L L L L L L u + u L L L L L L L L L L L L L L L L L L L L L a [ ' ' O.{ O.Z.x.o.#.$.' o.+.+.#.+.O.+.+.O.O.O.{ -XsXdXdXdXMX{ #.",
"^ ^ ^ ^ ^ ^ ^ U U U ^ ^ ^ ^ ^ ^ ^ ^ ^ ^ ^ ^ ^ ^ ^ ^ ^ ^ ^ ^ ^ a x.l.l.' O.-XMX*X{ O.O.O.O.+.#.+.+.O.O.O.O.O.O.O.l.zXdXsXdXdX>X{ ",
"L L L L L L L u u u L L L L L L L L L L L L L L L L L L L L L s M.NXMXM.-XcXgXN.[ O.O.O.O.+.#.#.#.O.O.+.#.#.O.#.O.*XgXdXfXdXdX' ",
"^ ^ ^ ^ ^ ^ ^ U U ^ ^ ^ ^ ^ ^ ^ ^ ^ ^ ^ ^ ^ ^ ^ ^ ^ ^ ^ ^ ^ ^ a ' N.0XmXzXrXsX3X5.] @.@.O.+.O.#.O.O.O.O.@.O.@.O.| 5.kXrXdXrX0Xz.",
"^ ^ ^ ^ ^ ^ ^ U U U ^ ^ ^ U ^ ^ ^ ^ ^ ^ ^ ^ ^ ^ ^ ^ ^ ^ ^ ^ ^ a #.' *XfXdXdXrXzXfXl.{ O.O.+.#.+.+.O.O.O.O.#.O.#.$.l.kXdXdXdXgXM.",
"^ ^ ^ ^ ^ ^ ^ U U ^ ^ ^ U u U ^ ^ ^ ^ ^ ^ ^ ^ ^ ^ ^ ^ ^ ^ ^ ^ a @.' Z.gXdXdXfXzXzXgX5.O.#.#.#.#.+.#.#.#.O.#.O.#.$.l.zXdXdXdXjXn.",
"^ ^ ^ ^ ^ ^ ^ U U ^ ^ ^ U U U ^ ^ ^ ^ ^ ^ ^ ^ ^ ^ ^ ^ ^ ^ ^ ^ a ' x.kXMXxXdXsXM.4.a.5.@.O.#.#.#.#.O.O.@.@.@.@.O.o.5.zXdXdXdXgXM.",
"^ ^ ^ ^ ^ ^ ^ ^ U ^ ^ ^ ^ U U ^ ^ ^ ^ ^ ^ ^ ^ ^ ^ ^ ^ ^ ^ ^ ^ a n.NX9XM.9XcX9X| [ [ $.#.#.#.#.#.#.#.#.#.@.#.#.#.O.M.kXdXfXdXdXl.",
"^ ^ ^ ^ ^ ^ ^ U U ^ ^ ^ ^ U ^ ^ ^ ^ ^ ^ ^ ^ ^ ^ ^ ^ ^ ^ ^ ^ ^ a B.x.:.' O.9X9X| @.@.@.O.O.#.O.#.#.O.O.@.@.O.O.O.5.gXdXsXdXsXgX' ",
"^ ^ ^ ^ ^ ^ ^ ^ U ^ ^ ^ ^ ^ U ^ ^ ^ ^ ^ ^ ^ ^ ^ ^ ^ ^ ^ ^ ^ ^ a [ ' | #.{ 4.n.O.O.#.O.O.+.+.O.#.+.O.#.O.O.#.O.{ *XsXdXrXdXfX*X{ ",
"^ ^ ^ ^ ^ ^ ^ ^ U ^ ^ ^ ^ U ^ ^ ^ ^ ^ ^ ^ ^ ^ ^ ^ ^ ^ ^ ^ ^ ^ a #.@.O.#.O.{ { #.O.#.O.{ | #.#.+.+.O.#.O.@.#.[ 5.rXfXdXdXgXMX' #.",
"^ ^ ^ ^ ^ ^ ^ ^ ^ ^ ^ ^ ^ ^ ^ ^ ^ ^ ^ ^ ^ ^ ^ ^ ^ ^ ^ ^ ^ ^ ^ a O.@.O.O.O.O.o.#.O.#.z.3Xo.' #.+.+.O.#.#.{ ' a.0XgXrXsXsXzXn.o.O.",
"^ ^ ^ ^ ^ ^ ^ ^ U ^ ^ ^ ^ ^ ^ ^ ^ ^ ^ ^ ^ ^ ^ ^ ^ ^ ^ ^ ^ ^ ^ a O.#.#.#.O.O.O.#.O.O.4.-X0Xx.' ' ' ' ' ' 3.x.0XzXrXdXgXxXn.[ @.#.",
"^ ^ ^ ^ ^ ^ ^ ^ ^ ^ ^ ^ ^ ^ ^ ^ ^ ^ ^ ^ ^ ^ ^ ^ ^ ^ ^ ^ ^ ^ ^ a #.@.@.#.O.O.O.#.O.O.O.[ -XFX*XM.M.M.M.M.3XnXgXdXdXxXgXm.[ #.@.#.",
"^ ^ ^ ^ ^ ^ ^ ^ ^ ^ ^ ^ ^ ^ ^ ^ ^ ^ ^ ^ ^ ^ ^ ^ ^ ^ ^ ^ ^ ^ ^ a @.@.@.@.@.O.@.@.@.@.@.O.{ =XgXFXMXMXMXMXcXgXdXzXxXqXn.] @.O.@.@.",
"^ ^ ^ ^ ^ ^ ^ ^ ^ ^ ^ ^ ^ ^ ^ ^ ^ ^ ^ ^ ^ ^ ^ ^ ^ ^ ^ ^ ^ ^ ^ a #.#.#.#.#.#.O.#.#.#.#.#.$. .#.*XzXcXxXnXcXcXnXqXn.O.{ O.#.#.@.#.",
"^ ^ ^ ^ ^ ^ ^ ^ ^ ^ ^ ^ ^ ^ ^ ^ ^ ^ ^ ^ ^ ^ ^ ^ ^ ^ ^ ^ ^ ^ ^ c 3.3.:.3.:.:.:.3.3.3.3.3.:.O.@.' l.z.z.z.z.z.z.4.' O.@.:.3.:.3.#.",
"^ ^ ^ ^ ^ ^ ^ ^ ^ ^ ^ ^ ^ ^ ^ ^ ^ ^ ^ ^ ^ ^ ^ ^ ^ ^ ^ ^ ^ ^ ^ ^ ^ ^ ^ ^ ^ ^ ^ ^ ^ ^ ^ ^ ^ ^ ^ ^ ^ ^ ^ ^ ^ L ].L ^ L ].^ ^ ^ ^ ^ ",
"^ ^ ^ ^ ^ ^ ^ ^ ^ ^ ^ ^ ^ ^ ^ ^ ^ ^ ^ ^ ^ ^ ^ ^ ^ ^ ^ ^ ^ ^ ^ ^ ^ ^ ^ ^ ^ ^ ^ ^ ^ ^ ^ ^ ^ ^ ^ ^ ^ ^ ^ ^ L ,XL ^ L ,X^ ^ ^ ^ ^ ^ ",
"^ ^ ^ ^ ^ ^ ^ ^ ^ ^ ^ ^ ^ ^ ^ ^ ^ ^ ^ ^ ^ ^ ^ ^ ^ ^ ^ ^ ^ ^ ^ ^ ^ ^ ^ ^ ^ ^ ^ ^ ^ ^ ^ ^ ^ ^ ^ ^ ^ ^ ^ L ,X^ ^ L ].^ ^ ^ ^ ^ ^ ^ ",
"^ ^ ^ L ^ ^ ^ ^ ^ ^ ^ ^ ^ ^ ^ ^ ^ ^ ^ ^ ^ ^ ^ ^ ^ ^ ^ ^ ^ ^ ^ ^ ^ ^ ^ ^ ^ ^ ^ ^ ^ ^ ^ ^ ^ ^ ^ ^ ^ ^ ^ ].^ ^ L ^ ^ ^ ^ ^ ^ ^ ^ ^ ",
"^ ^ ^ ^ L ^ ^ ^ ^ ^ ^ ^ ^ ^ ^ ^ ^ ^ ^ ^ ^ ^ ^ ^ ^ ^ ^ ^ ^ ^ ^ ^ ^ ^ ^ ^ ^ ^ ^ ^ ^ ^ ^ ^ ^ ^ ^ ^ ^ ^ ^ ^ ^ ^ ^ ^ ^ ^ ^ ^ ^ ^ ^ ^ ",
"^ ^ ^ L L ^ ^ ^ ^ ^ ^ ^ ^ ^ ^ ^ ^ ^ ^ ^ ^ ^ ^ ^ ^ ^ ^ ^ ^ ^ ^ ^ ^ ^ ^ ^ ^ ^ ^ ^ ^ ^ ^ ^ ^ ^ ^ ^ ^ ^ ^ ^ ^ ^ ^ ^ ^ ^ ^ ^ ^ ^ ^ ^ ",
"^ ^ L L L ^ ^ ^ ^ ^ ^ ^ ^ ^ ^ ^ ^ ^ ^ ^ ^ ^ ^ ^ ^ ^ ^ ^ ^ ^ ^ ^ ^ ^ ^ ^ ^ ^ ^ ^ ^ ^ ^ ^ ^ ^ ^ ^ ^ ^ ^ ^ ^ ^ ^ ^ ^ ^ ^ ^ ^ ^ ^ ^ ",
"^ ^ L L ^ ^ ^ ^ ^ ^ ^ ^ ^ ^ ^ ^ ^ ^ ^ ^ ^ ^ ^ ^ ^ ^ ^ ^ ^ ^ ^ ^ ^ ^ ^ ^ ^ ^ ^ ^ ^ ^ ^ ^ ^ ^ ^ ^ ^ ^ ^ ^ ^ ^ ^ ^ ^ ^ ^ ^ ^ ^ ^ ^ ",
"^ ^ L L L ^ ^ ^ ^ ^ ^ ^ ^ ^ ^ ^ ^ ^ ^ ^ ^ ^ ^ ^ ^ ^ ^ ^ ^ ^ ^ ^ ^ ^ ^ ^ ^ ^ ^ ^ ^ ^ ^ ^ ^ ^ ^ ^ ^ ^ ^ ^ ^ ^ ^ ^ ^ ^ ^ ^ ^ ^ ^ ^ ",
"^ ^ ^ L ^ ^ ^ ^ ^ ^ ^ ^ ^ ^ ^ ^ ^ ^ ^ ^ ^ ^ ^ ^ ^ ^ ^ ^ ^ ^ ^ ^ ^ ^ ^ ^ ^ ^ ^ ^ ^ ^ ^ ^ ^ ^ ^ ^ ^ ^ ^ ^ ^ ^ ^ ^ ^ ^ ^ ^ ^ ^ ^ ^ ",
"^ ^ ^ ^ L ^ ^ ^ ^ ^ ^ ^ ^ ^ ^ ^ ^ ^ ^ ^ ^ ^ ^ ^ ^ ^ ^ ^ ^ ^ ^ ^ ^ ^ ^ ^ ^ ^ ^ ^ ^ ^ ^ ^ ^ ^ ^ ^ ^ ^ ^ ^ ^ ^ ^ ^ ^ ^ ^ ^ ^ ^ ^ ^ ",
"^ ^ ^ ^ ^ ^ ^ ^ ^ ^ ^ ^ ^ ^ ^ ^ ^ ^ ^ ^ ^ ^ ^ ^ ^ ^ ^ ^ ^ ^ ^ ^ ^ ^ ^ ^ ^ ^ ^ ^ ^ ^ ^ ^ ^ ^ ^ ^ ^ ^ ^ ^ ^ ^ ^ ^ ^ ^ ^ ^ ^ ^ ^ ^ ",
"^ ^ ^ ^ ^ ^ ^ ^ ^ ^ ^ ^ ^ ^ ^ ^ ^ ^ ^ ^ ^ ^ ^ ^ ^ ^ ^ ^ ^ ^ ^ ^ ^ ^ ^ ^ ^ ^ ^ ^ ^ ^ ^ ^ ^ ^ ^ ^ ^ ^ ^ ^ ^ ^ ^ ^ ^ ^ ^ ^ ^ ^ ^ ^ ",
"$.-.y.,.:.t.w.<.<.<.<.-.9.w.7.r.t.t.t.0.0.0.0.0.e.f.g.g.x.{.^ ,X,X,X,X^ M B B B B B B M B M m m m m N m m m B M B B B G.A B B B ",
"*.w.>.  . 8 7.t.<.<.<.9.9.q.q.r.r.t.0.0.0.0.0.0.e.d.f.g.s.              N N N N H.N N N D.m B C ( ( Q W C B M m N M N A A A M M ",
"w 7.O   .   O e w.w.1.1.w w <.r.q.q.t.r.r.t.t.r.-.e.d.g.s.              N N N G.H.N m m Z J I Y ~ ~ ! Y Y K J Z N S N A A A A M ",
"e 8   o O O     8 a r 5 h ; 6 t a 8.u.e.0.t.r.=.*.-.d.g.s.+ + + : +   + N N N H.H.F.V h x x l J K I K K K K H x v V F.N N N N G.",
"8   o o o . $ G ; & * > G P L P n 3 p <.u.r.=.-.-.*.-.f.a.: + 4 4 +   4 N N N H.D.P.&X) K ! !.!.$X$X$X$X$X! K J l k D F.N N G.H.",
"o o O o   : _ _ L = =   I 6X$X$Xb.) ; & e *.=.#.O.O.%.-.4.: : 4 4 +   4 N N G.H.P.%X2X<XG ! 4XgXfXgXdXgX2XQ z g f k F B F.H.H.H.",
"O O o . 6 ]._ Q / v @ @ ) 4XC.$X5X2X@ & & 7 ] X.O.O.X.=.6.: : 4 4 +   4 N N H.m %X2X&X[.I 5 _ AX5X4X5X3XR H 1 < 1 K J 1 G.H.H.H.",
"O O . , / P _ Q P J < 2 : : I ^ ) G @ > * * 9 q q X.@.=.,.: : 4 4 : + 4 N N F.C ) &X&X&X$XG K BX5X2X;XU H U z g J G G &X1XL.H.H.",
"o o O / / P Q Q P P F d k.B.r < : = 2 > > h % 9 9 9 9 O.a.: : 4 4 +   4 N G.P.cXvXvX&X[.$X_ 5 ) ) >Xm.Z.Z.7Xv.K K 2 1 SXbXJ.K.H.",
"o . O W J b g P / v v.eXyXuXk.@ * > @ # G P h s q 9 7 7.x.: : 4 4 : + 4 H.H.{.zXzXhX6X<X%XE._ ^ ) b.7XyXwX8Xm.H I _ _ SXcX{.L.K.",
". o J g Q E._ v 3 J 7X8XwX7XZ.3 # # = 2 * G xX;X7 7 r.u.5.: : 4 4 :   4 K.K.iXBXBXBXDXDXDXCXCXnXCX&X=XM.8XB.R Y &XCXcXSXcX5XL.J.",
"  $ iXC.) iX6X$Xg ! uXyX7XyX8XY * = > 6 H b.CXtXw =.u.y.5.> : 4 4 : + 4 J.K.CXSXAXSXSXSXSXSXGXCXCX-XwX8XeXM.S.Y G Q G I J J P.J.",
". > {.{.[.[.&XcXAXcX=XS.M.S.S.lXBX:X4 G [.E.E.R.h.u.y.y.5.> : 4 4 : + 4 J.K.SX) sXSXAXDXAXbXsXAXDXwX8Xm.k.T S.T * # * # # * P.J.",
". h W.Q.W.[.MXDXSXSX%Xd S.d kXSXSXtX2X>X}.W.T.Q.c.i.9.9...: : 4 4 + + 4 J.J.SX2XBXSXSXAXBX0XrXSXAXZXm.m.B.T T 2 > > < < < < A J.",
". n OXOXT.%XFXSXSXSXbXd $ R SXSXZXkXhX>X{.+XQ.@Xc.9.9.9.2.: : 4 4 : + 4 J.J.VXAXAXSXSXZXlX4XrXSXBXSX! T T u 2 = = = > < < < G.J.",
"  ` @XOXR.> G zXsX$XeXyX7XS._ :XbX4X+ $ R.@XaXpXT i.9.;.w : : 4 : +   4 I.I.nXVXBXBXVXGXtX4XrXVXlXcXm.v.H x u 1 1 < = > < < K.I.",
". 3 +XOXR.@ 2 F 2 = H b.b.H = = H I X   '.pXNXNXr ' 9.} w : : 4 4 + + : I.I.iXAXBXtXlXjX0X0X5X%X_ K T 8X7XB.y 2 5 j 5 2 < 1 I.I.",
". o T.Y.Z F K 5 k F k f f k F F y y F , D #X#X1X7 9 *. .w : + 4 : +   4 I.J.{.AXBX0XjXlXjX0XY 2 < f 6 I Q J 3 5 2 j j z < n I.J.",
".   ~ nX:Xy j l k l l l l j k l l j F i :XlXkXd 9 q ] *.w +   : :     : I.I.J.jXBXtXGXZXAXY 5 5 f z g b b b f f 5 5 5 5 ~ /.I.I.",
"O   , fXb.5 j F F l l l k k l l j j l 5 Y :X>X%.0 q q  .j.].,X].,X].,X,XI.I.L.HXcX&X:X4X4X< 5 5 f f E W W W f f z 2 6 2 W ^.~.).",
"O o   H _ j j F F F l l j l l F y 5 5 Y %X1Xs 9 q q q ] 6.^ ^ ^ ^ ^ ^ ^ I.(.).^.fX) _ ) 5 j 5 f z g W W W W g f z 2 2 2 J./.~.(.",
"O . .   y K 5 j F F l j k F F F z y 5 F SXwX' 0 q q q q a ^ ^ ^ ^ ^ ^ ^ (.(.).I.}.bXAXlXF 5 5 j 5 f E W E E g f j 2 , P.^././.(.",
"O o o     2 j z j j i k l l l j y 5 k G M.;.[ } } ] ] q s ^ ^ ^ ^ ^ ^ ,X(.(.).(.U.}.VXA.j 5 5 5 f f E E E J b f t y H.^././.(.(.",
"O . . . .   $ j F j 5 5 5 y y j j 5 6 t 7.&.[ } } &.&.&.s ^ ^ ^ ^ ^ u L (.).).(.Y.U.'.W r , y 5 z 5 E J J J l r b Y.^.I././.^.I.",
"o . . . o .   O 2 z k F F k j j 2 $ O . p 8.&.&.&.} ] w t ^ ^ ^ ^ ^ u u (.(.(.(.).).U.I.D h 5 - r t J z z l C P.(.|.(./.I.I.~. X",
". . . . . . .     o $ = > $ $ @ . o O .   8 *.] w 8 % $ , ^ ^ ^ ^ ^ ^ ^ (.).).`..XXX.X.XXX|./.D Z Z C P.P./. X|. X`.`.`._.`.oXaX",
"O o o o o o . . . . . . . . . . . O O O O   % % $ % % % - + u + u u u u _._.`. X`..X.X.X.XXXXXXXXXXXoXXXXXXX.X.X.X.X.X.X.XXX.XoX"
};
